<svg xmlns="http://www.w3.org/2000/svg" width="26" height="24" viewBox="0 0 26 24">
  <defs>
    <style>
      .a {
        fill: #2969b8;
      }
    </style>
  </defs>
  <title>3</title>
  <path class="a" d="M22.6,14.87h0L26,4.44a.62.62,0,0,0,0-.23.58.58,0,0,0-.57-.58H5.72L4.68.4A.58.58,0,0,0,4.14,0H.57a.58.58,0,0,0,0,1.16H3.72L9.05,17.71l-.41.09a3.08,3.08,0,0,0-1.56.85,3.15,3.15,0,0,0,0,4.43,3,3,0,0,0,4.36,0A3.15,3.15,0,0,0,12,19.46l-.28-.56h7.84l-.28.56A3.11,3.11,0,0,0,19,20.87a3.14,3.14,0,0,0,.9,2.21,3.05,3.05,0,0,0,4.37,0,3.16,3.16,0,0,0,0-4.42h0a3.07,3.07,0,0,0-2.19-.92H10.26l-.8-2.48h12.6A.57.57,0,0,0,22.6,14.87Zm-1.92,4.6a1.89,1.89,0,0,1,1.24-.57h.22a1.91,1.91,0,0,1,1.29.58,2,2,0,0,1,.57,1.4,1.94,1.94,0,0,1-.57,1.39,1.88,1.88,0,0,1-1.37.58,1.91,1.91,0,0,1-1.38-.58,1.94,1.94,0,0,1-.57-1.39A2,2,0,0,1,20.68,19.47Zm-10,0a2,2,0,0,1,.57,1.4,2,2,0,0,1-.57,1.39h0a1.91,1.91,0,0,1-1.38.58,1.87,1.87,0,0,1-1.37-.58,1.94,1.94,0,0,1-.57-1.39,2,2,0,0,1,.57-1.4,1.9,1.9,0,0,1,1.37-.57A1.94,1.94,0,0,1,10.64,19.47ZM9.09,14.1l-.71-2.2h0l-.63-2h0L7,7.71,6.09,4.79H24.64l-.93,2.9L22.34,12h0l-.7,2.15Z"/>
</svg>
