<svg xmlns="http://www.w3.org/2000/svg" width="29" height="21.09" viewBox="0 0 29 21.09">
  <defs>
    <style>
      .a {
        fill: #2969b8;
      }
    </style>
  </defs>
  <title>13</title>
  <g>
    <path class="a" d="M28.34,0H.66A.65.65,0,0,0,0,.66V20.43a.65.65,0,0,0,.66.66H28.34a.66.66,0,0,0,.66-.66V.66A.66.66,0,0,0,28.34,0Zm-.66,18.18L19.52,10l-.93.94,8.82,8.82H1.59L10.41,11,9.48,10,1.32,18.18V1.32H27.68Z"/>
    <path class="a" d="M26.35,1.32,14.5,13.17,2.65,1.32H1.32v.53L14,14.57a.68.68,0,0,0,.94,0L27.68,1.85V1.32Z"/>
  </g>
</svg>
