<svg xmlns="http://www.w3.org/2000/svg" width="32" height="32" viewBox="0 0 32 32">
  <defs>
    <style>
      .a {
        fill: #2969b8;
      }
    </style>
  </defs>
  <title>8</title>
  <g>
    <path class="a" d="M31.38,5A.62.62,0,0,0,32,4.38V.63A.63.63,0,0,0,31.38,0H27.63A.63.63,0,0,0,27,.63V1.88H5V.63A.63.63,0,0,0,4.38,0H.63A.63.63,0,0,0,0,.63V4.38A.63.63,0,0,0,.63,5H1.88V27H.63a.63.63,0,0,0-.63.63v3.75A.63.63,0,0,0,.63,32H4.38A.62.62,0,0,0,5,31.38V30.13H27v1.25a.63.63,0,0,0,.63.62h3.75a.62.62,0,0,0,.62-.62V27.63a.63.63,0,0,0-.62-.63H30.13V5ZM1.25,3.75V1.25h2.5v2.5Zm2.5,27H1.25v-2.5h2.5ZM27,27.63v1.25H5V27.63A.63.63,0,0,0,4.38,27H3.13V5H4.38A.62.62,0,0,0,5,4.38V3.13H27V4.38a.63.63,0,0,0,.63.62h1.25V27H27.63A.63.63,0,0,0,27,27.63Zm3.75.62v2.5h-2.5v-2.5Zm-2.5-24.5V1.25h2.5v2.5Z"/>
    <g>
      <path class="a" d="M24.38,6.66H20.66a.62.62,0,0,0-.62.62V9.14h-.62a.62.62,0,1,0,0,1.24H20V11a.62.62,0,0,0,.62.62h.62v.61a.63.63,0,0,0,.63.62.61.61,0,0,0,.61-.62v-.62h1.86A.62.62,0,0,0,25,11V7.27A.62.62,0,0,0,24.38,6.66Zm-.62,3.71H21.28V7.89h2.48Z"/>
      <path class="a" d="M24.38,20.63H22.52V20a.62.62,0,0,0-1.24,0v.62h-.62a.63.63,0,0,0-.62.63v.61h-.62a.62.62,0,1,0,0,1.24H20V25a.62.62,0,0,0,.62.62h3.72A.62.62,0,0,0,25,25V21.26A.63.63,0,0,0,24.38,20.63Zm-.62,3.72H21.28V21.87h2.48Z"/>
      <path class="a" d="M12.86,9.14H12V6.66H7v4.95H9.48v.91h0c.54.61,1.23.24,1.23-.3v-.62H12V10.37h.62c.54,0,.92-.68.31-1.23Zm-2.14,1.23H8.24V7.89h2.48Z"/>
      <path class="a" d="M17.06,9.14h-2a.62.62,0,0,0,0,1.24h2a.62.62,0,0,0,0-1.24Z"/>
      <path class="a" d="M12.8,9.14H11.53c-.21,0-.38.28-.38.62s.17.62.38.62H12.8c.22,0,.39-.28.39-.62S13,9.14,12.8,9.14Z"/>
      <path class="a" d="M21.28,17.15a.63.63,0,0,0,1.25,0v-2a.63.63,0,1,0-1.25,0Z"/>
      <path class="a" d="M21.9,12.85c.34,0,.62-.19.62-.42V11.06c0-.23-.28-.42-.62-.42s-.62.19-.62.42v1.37C21.28,12.66,21.56,12.85,21.9,12.85Z"/>
      <path class="a" d="M17.06,21.87h-2a.62.62,0,0,0,0,1.24h2a.62.62,0,0,0,0-1.24Z"/>
      <path class="a" d="M12.73,21.87H11.22a.64.64,0,0,0,0,1.24h1.51c.25,0,.46-.28.46-.62S13,21.87,12.73,21.87Z"/>
      <path class="a" d="M12.86,21.87H12V20.63H10.72v-.91h0c-.55-.61-1.23-.23-1.23.31v.62H7v4.95H12V23.11h.62c.54,0,.92-.69.31-1.23Zm-2.14,2.48H8.24V21.87h2.48Z"/>
      <path class="a" d="M9.47,17.15c0,.54.69.92,1.23.31h0v-2.6s0,0,0,0c-.54-.61-1.23-.23-1.23.31v2Z"/>
      <path class="a" d="M10.71,12.62v-2h0c-.55-.46-1.23-.17-1.23.23v1.52C9.47,12.79,10.16,13.07,10.71,12.62Z"/>
    </g>
  </g>
</svg>
