<?xml version="1.0" encoding="UTF-8" standalone="no"?>
<!-- Created with Inkscape (http://www.inkscape.org/) -->

<svg
   xmlns:dc="http://purl.org/dc/elements/1.1/"
   xmlns:cc="http://creativecommons.org/ns#"
   xmlns:rdf="http://www.w3.org/1999/02/22-rdf-syntax-ns#"
   xmlns:svg="http://www.w3.org/2000/svg"
   xmlns="http://www.w3.org/2000/svg"
   xmlns:sodipodi="http://sodipodi.sourceforge.net/DTD/sodipodi-0.dtd"
   xmlns:inkscape="http://www.inkscape.org/namespaces/inkscape"
   width="28"
   height="28"
   viewBox="0 0 27.999999 27.999999"
   id="svg2"
   version="1.1"
   inkscape:version="0.91 r13725"
   sodipodi:docname="hand_pan.svg"
   inkscape:export-filename="./hand_pan.png"
   inkscape:export-xdpi="300"
   inkscape:export-ydpi="300">
  <defs
     id="defs4" />
  <sodipodi:namedview
     id="base"
     pagecolor="#ffffff"
     bordercolor="#666666"
     borderopacity="1.0"
     inkscape:pageopacity="0.0"
     inkscape:pageshadow="2"
     inkscape:zoom="11.2"
     inkscape:cx="5.651939"
     inkscape:cy="21.638852"
     inkscape:document-units="px"
     inkscape:current-layer="layer1"
     showgrid="false"
     units="px"
     inkscape:window-width="2560"
     inkscape:window-height="1021"
     inkscape:window-x="0"
     inkscape:window-y="0"
     inkscape:window-maximized="1" />
  <metadata
     id="metadata7">
    <rdf:RDF>
      <cc:Work
         rdf:about="">
        <dc:format>image/svg+xml</dc:format>
        <dc:type
           rdf:resource="http://purl.org/dc/dcmitype/StillImage" />
        <dc:title />
      </cc:Work>
    </rdf:RDF>
  </metadata>
  <g
     inkscape:label="Layer 1"
     inkscape:groupmode="layer"
     id="layer1"
     transform="translate(0,-1024.3622)">
    <path
       style="fill:none;fill-rule:evenodd;stroke:#000000;stroke-width:0.99999982;stroke-linecap:round;stroke-linejoin:round;stroke-miterlimit:4;stroke-dasharray:none;stroke-opacity:1"
       d="m 17.479984,1047.7127 c 1.313361,-3.5124 2.371237,-2.2704 3.245327,-10.193 l -0.01866,-3.1814 c -0.03377,-1.4747 -1.538704,-2.2257 -2.17272,-0.5301 l -0.123601,3.6284 -0.02395,-6.0159 c 0.06657,-1.2987 -2.35411,-1.9646 -2.726306,-0.1583 l -0.0678,5.9872 -0.09581,-7.2282 c -0.164172,-1.6476 -2.589547,-1.6146 -2.668266,-0.078 l 0.09982,7.15 -0.238287,-6.0037 c -0.07698,-1.7622 -2.7197381,-1.4324 -2.684264,0.2342 l 0.128888,8.1395 c -0.8175758,-0.7647 -0.1398841,-2.607 -0.6247175,-3.7072 -0.6739725,-1.5293 -2.1040071,-1.5586 -2.2558028,0.6201 -0.2986674,4.2868 -0.2197188,5.2433 1.0815371,7.106 0.5747675,0.8227 3.1006942,3.123 3.4330992,4.1152 z"
       id="path4134"
       inkscape:connector-curvature="0"
       sodipodi:nodetypes="ccccccccccccccssscc" />
  </g>
</svg>
