<svg xmlns="http://www.w3.org/2000/svg" width="32" height="32" viewBox="0 0 32 32">
  <defs>
    <style>
      .a {
        fill: #2969b8;
      }
    </style>
  </defs>
  <title>11</title>
  <g>
    <path class="a" d="M3.75,5.63V26.38h.63a1.26,1.26,0,0,1,1.25,1.25v.62H26.38v-.62a1.25,1.25,0,0,1,1.25-1.25h.62V5.63h-.62a1.26,1.26,0,0,1-1.25-1.25V3.75H5.63v.63A1.26,1.26,0,0,1,4.38,5.63Z"/>
    <path class="a" d="M31.38,5A.62.62,0,0,0,32,4.38V.63A.63.63,0,0,0,31.38,0H27.63A.63.63,0,0,0,27,.63V1.88H5V.63A.63.63,0,0,0,4.38,0H.63A.63.63,0,0,0,0,.63V4.38A.63.63,0,0,0,.63,5H1.88V27H.63a.63.63,0,0,0-.63.63v3.75A.63.63,0,0,0,.63,32H4.38A.62.62,0,0,0,5,31.38V30.13H27v1.25a.63.63,0,0,0,.63.62h3.75a.62.62,0,0,0,.62-.62V27.63a.63.63,0,0,0-.62-.63H30.13V5Zm-.63,23.25v2.5h-2.5V28.88H3.75v1.87H1.25v-2.5H2.6V3.75H1.25V1.25h2.5V2.5h24.5V1.25h2.5v2.5H29.17v24.5Z"/>
    <path class="a" d="M28.25,3.75V2.5H3.75V3.75H2.6v24.5H3.75v.63H5V27.63A.63.63,0,0,0,4.38,27H3.13V5H4.38A.62.62,0,0,0,5,4.38V3.13H27V4.38a.63.63,0,0,0,.63.62h1.25V27H27.63a.63.63,0,0,0-.63.63v1.25h1.25v-.63h.92V3.75Z"/>
  </g>
</svg>
