<?xml version="1.0" encoding="UTF-8" standalone="no"?>
<svg
   xmlns:dc="http://purl.org/dc/elements/1.1/"
   xmlns:cc="http://creativecommons.org/ns#"
   xmlns:rdf="http://www.w3.org/1999/02/22-rdf-syntax-ns#"
   xmlns:svg="http://www.w3.org/2000/svg"
   xmlns="http://www.w3.org/2000/svg"
   xmlns:sodipodi="http://sodipodi.sourceforge.net/DTD/sodipodi-0.dtd"
   xmlns:inkscape="http://www.inkscape.org/namespaces/inkscape"
   width="29"
   height="21.09"
   viewBox="0 0 29 21.09"
   id="svg2"
   version="1.1"
   inkscape:version="0.91 r13725"
   sodipodi:docname="mess_ok.svg">
  <metadata
     id="metadata18">
    <rdf:RDF>
      <cc:Work
         rdf:about="">
        <dc:format>image/svg+xml</dc:format>
        <dc:type
           rdf:resource="http://purl.org/dc/dcmitype/StillImage" />
        <dc:title>13</dc:title>
      </cc:Work>
    </rdf:RDF>
  </metadata>
  <sodipodi:namedview
     pagecolor="#ffffff"
     bordercolor="#666666"
     borderopacity="1"
     objecttolerance="10"
     gridtolerance="10"
     guidetolerance="10"
     inkscape:pageopacity="0"
     inkscape:pageshadow="2"
     inkscape:window-width="2560"
     inkscape:window-height="1021"
     id="namedview16"
     showgrid="false"
     inkscape:zoom="1"
     inkscape:cx="-98.949942"
     inkscape:cy="43.162862"
     inkscape:window-x="0"
     inkscape:window-y="0"
     inkscape:window-maximized="1"
     inkscape:current-layer="svg2" />
  <defs
     id="defs4">
    <style
       id="style6">
      .a {
        fill: #2969b8;
      }
    </style>
  </defs>
  <title
     id="title8">13</title>
  <g
     id="g10"
     transform="matrix(0.81693924,0,0,0.81614447,6.3831171e-5,3.8774495)">
    <path
       class="a"
       d="M 28.34,0 0.66,0 A 0.65,0.65 0 0 0 0,0.66 l 0,19.77 a 0.65,0.65 0 0 0 0.66,0.66 l 27.68,0 A 0.66,0.66 0 0 0 29,20.43 L 29,0.66 A 0.66,0.66 0 0 0 28.34,0 Z M 27.68,18.18 19.52,10 l -0.93,0.94 8.82,8.82 -25.82,0 8.82,-8.76 -0.93,-1 -8.16,8.18 0,-16.86 26.36,0 z"
       id="path12"
       inkscape:connector-curvature="0"
       style="fill:#2969b8" />
    <path
       class="a"
       d="M 26.35,1.32 14.5,13.17 2.65,1.32 l -1.33,0 0,0.53 L 14,14.57 a 0.68,0.68 0 0 0 0.94,0 l 12.74,-12.72 0,-0.53 z"
       id="path14"
       inkscape:connector-curvature="0"
       style="fill:#2969b8" />
  </g>
  <circle
     style="color:#000000;clip-rule:nonzero;display:inline;overflow:visible;visibility:visible;opacity:1;isolation:auto;mix-blend-mode:normal;color-interpolation:sRGB;color-interpolation-filters:linearRGB;solid-color:#000000;solid-opacity:1;fill:#ffffff;fill-opacity:1;fill-rule:evenodd;stroke:none;stroke-width:0.99999988;stroke-linecap:round;stroke-linejoin:round;stroke-miterlimit:4;stroke-dasharray:1.99999976, 1.99999976;stroke-dashoffset:0;stroke-opacity:1;color-rendering:auto;image-rendering:auto;shape-rendering:auto;text-rendering:auto;enable-background:accumulate"
     id="path4152"
     cx="20.222494"
     cy="8.6164274"
     r="8.4615479" />
  <path
     style="fill:#2969b8;fill-opacity:1;fill-rule:evenodd;stroke:none;stroke-width:0.99999994px;stroke-linecap:butt;stroke-linejoin:miter;stroke-opacity:1"
     d="m 14.006845,7.7014919 5.936133,7.6148011 C 21.931066,11.484068 25.793739,4.9982056 28.195528,1.3605297 L 26.374132,0.06239936 C 25.091673,1.9688321 21.923356,6.6601035 19.865707,9.9224296 L 16.757903,5.5928741 Z"
     id="path28780-1"
     inkscape:connector-curvature="0"
     sodipodi:nodetypes="ccccccc" />
</svg>
