<?xml version="1.0" encoding="UTF-8" standalone="no"?>
<svg
   xmlns:dc="http://purl.org/dc/elements/1.1/"
   xmlns:cc="http://creativecommons.org/ns#"
   xmlns:rdf="http://www.w3.org/1999/02/22-rdf-syntax-ns#"
   xmlns:svg="http://www.w3.org/2000/svg"
   xmlns="http://www.w3.org/2000/svg"
   xmlns:sodipodi="http://sodipodi.sourceforge.net/DTD/sodipodi-0.dtd"
   xmlns:inkscape="http://www.inkscape.org/namespaces/inkscape"
   width="29"
   height="21.09"
   viewBox="0 0 29 21.09"
   id="svg2"
   version="1.1"
   inkscape:version="0.91 r13725"
   sodipodi:docname="mess_err.svg">
  <metadata
     id="metadata18">
    <rdf:RDF>
      <cc:Work
         rdf:about="">
        <dc:format>image/svg+xml</dc:format>
        <dc:type
           rdf:resource="http://purl.org/dc/dcmitype/StillImage" />
        <dc:title>13</dc:title>
      </cc:Work>
    </rdf:RDF>
  </metadata>
  <sodipodi:namedview
     pagecolor="#ffffff"
     bordercolor="#666666"
     borderopacity="1"
     objecttolerance="10"
     gridtolerance="10"
     guidetolerance="10"
     inkscape:pageopacity="0"
     inkscape:pageshadow="2"
     inkscape:window-width="2560"
     inkscape:window-height="1021"
     id="namedview16"
     showgrid="false"
     inkscape:zoom="22.627417"
     inkscape:cx="10.890083"
     inkscape:cy="10.314732"
     inkscape:window-x="0"
     inkscape:window-y="0"
     inkscape:window-maximized="1"
     inkscape:current-layer="svg2" />
  <defs
     id="defs4">
    <style
       id="style6">
      .a {
        fill: #2969b8;
      }
    </style>
  </defs>
  <title
     id="title8">13</title>
  <g
     id="g10"
     transform="matrix(0.81693924,0,0,0.81614447,6.3831171e-5,3.8774495)">
    <path
       class="a"
       d="M 28.34,0 0.66,0 A 0.65,0.65 0 0 0 0,0.66 l 0,19.77 a 0.65,0.65 0 0 0 0.66,0.66 l 27.68,0 A 0.66,0.66 0 0 0 29,20.43 L 29,0.66 A 0.66,0.66 0 0 0 28.34,0 Z M 27.68,18.18 19.52,10 l -0.93,0.94 8.82,8.82 -25.82,0 8.82,-8.76 -0.93,-1 -8.16,8.18 0,-16.86 26.36,0 z"
       id="path12"
       inkscape:connector-curvature="0"
       style="fill:#2969b8" />
    <path
       class="a"
       d="M 26.35,1.32 14.5,13.17 2.65,1.32 l -1.33,0 0,0.53 L 14,14.57 a 0.68,0.68 0 0 0 0.94,0 l 12.74,-12.72 0,-0.53 z"
       id="path14"
       inkscape:connector-curvature="0"
       style="fill:#2969b8" />
  </g>
  <circle
     style="color:#000000;clip-rule:nonzero;display:inline;overflow:visible;visibility:visible;opacity:1;isolation:auto;mix-blend-mode:normal;color-interpolation:sRGB;color-interpolation-filters:linearRGB;solid-color:#000000;solid-opacity:1;fill:#ffffff;fill-opacity:1;fill-rule:evenodd;stroke:none;stroke-width:0.99999988;stroke-linecap:round;stroke-linejoin:round;stroke-miterlimit:4;stroke-dasharray:1.99999976, 1.99999976;stroke-dashoffset:0;stroke-opacity:1;color-rendering:auto;image-rendering:auto;shape-rendering:auto;text-rendering:auto;enable-background:accumulate"
     id="path4152"
     cx="20.222494"
     cy="8.6164274"
     r="8.4615479" />
  <path
     inkscape:connector-curvature="0"
     id="path29020"
     d="m 27.008316,1.3422895 c -1.66693,1.3010157 -3.55344,2.9842327 -5.504094,4.8185973 -1.209926,-1.62834 -2.312489,-3.2158187 -3.204592,-4.5280752 l -2.638124,1.7841712 c 0.956823,1.4074414 2.287878,3.0613429 3.761103,4.7441058 -1.736333,1.6850403 -3.481481,3.4177274 -5.140549,5.0917554 l 1.827637,1.800301 c 1.626623,-1.641277 3.389633,-3.289622 5.149264,-4.85958 1.521148,1.631378 3.100814,3.212775 4.545448,4.541737 l 1.601054,-1.73202 C 26.017487,11.726444 24.605809,10.118974 23.264634,8.4441665 25.304655,6.6879695 27.276492,5.0706289 28.92434,3.7844873 L 27.008316,1.3422895 Z"
     style="color:#000000;font-style:normal;font-variant:normal;font-weight:normal;font-stretch:normal;font-size:medium;line-height:normal;font-family:sans-serif;text-indent:0;text-align:start;text-decoration:none;text-decoration-line:none;text-decoration-style:solid;text-decoration-color:#000000;letter-spacing:normal;word-spacing:normal;text-transform:none;direction:ltr;block-progression:tb;writing-mode:lr-tb;baseline-shift:baseline;text-anchor:start;white-space:normal;clip-rule:nonzero;display:inline;overflow:visible;visibility:visible;opacity:1;isolation:auto;mix-blend-mode:normal;color-interpolation:sRGB;color-interpolation-filters:linearRGB;solid-color:#000000;solid-opacity:1;fill:#2969b8;fill-opacity:1;fill-rule:evenodd;stroke:none;stroke-width:1;stroke-linecap:butt;stroke-linejoin:miter;stroke-miterlimit:4;stroke-dasharray:none;stroke-dashoffset:0;stroke-opacity:1;color-rendering:auto;image-rendering:auto;shape-rendering:auto;text-rendering:auto;enable-background:accumulate" />
</svg>
