<svg xmlns="http://www.w3.org/2000/svg" width="24.5" height="24.75" viewBox="0 0 24.5 24.75">
  <defs>
    <style>
      .a, .b {
        fill: #2969b8;
        stroke: #2969b8;
        stroke-miterlimit: 10;
      }

      .a {
        stroke-width: 0.75px;
      }

      .b {
        stroke-width: 0.5px;
      }
    </style>
  </defs>
  <title>1</title>
  <g>
    <path class="a" d="M17.29.38H7.21A1.77,1.77,0,0,0,5.44,2.13V22.61a1.78,1.78,0,0,0,1.77,1.77H17.29a1.78,1.78,0,0,0,1.77-1.77V2.13A1.77,1.77,0,0,0,17.29.38Zm-11,3.19h12v15.2h-12Zm1-2.4H17.29a1,1,0,0,1,1,1v.64h-12V2.13A1,1,0,0,1,7.21,1.17Zm10.08,22.4H7.21a1,1,0,0,1-1-1v-3h12v3A1,1,0,0,1,17.29,23.57Z"/>
    <path class="b" d="M12.25,20.49a1.08,1.08,0,1,0,1.08,1.08A1.08,1.08,0,0,0,12.25,20.49Zm0,1.64a.56.56,0,1,1,.56-.56A.55.55,0,0,1,12.25,22.13Z"/>
    <path class="b" d="M22.9,2.21a.4.4,0,1,0-.56.56,3.89,3.89,0,0,1,0,5.44.39.39,0,0,0,0,.56.39.39,0,0,0,.56,0A4.66,4.66,0,0,0,22.9,2.21Z"/>
    <path class="b" d="M21.22,3.09a.4.4,0,1,0-.56.56,2.61,2.61,0,0,1,0,3.68.39.39,0,0,0,0,.56.39.39,0,0,0,.56,0,3.45,3.45,0,0,0,1-2.44A3.33,3.33,0,0,0,21.22,3.09Z"/>
    <path class="b" d="M2.16,2.77a.4.4,0,0,0-.56-.56,4.66,4.66,0,0,0,0,6.56.43.43,0,0,0,.28.12.43.43,0,0,0,.28-.12.39.39,0,0,0,0-.56A3.89,3.89,0,0,1,2.16,2.77Z"/>
    <path class="b" d="M3.84,3a.39.39,0,0,0-.56,0,3.36,3.36,0,0,0-1,2.4,3.52,3.52,0,0,0,1,2.44.39.39,0,0,0,.56,0,.38.38,0,0,0,0-.55,2.66,2.66,0,0,1-.76-1.85,2.73,2.73,0,0,1,.76-1.88A.39.39,0,0,0,3.84,3Z"/>
  </g>
</svg>
