<svg xmlns="http://www.w3.org/2000/svg" width="22" height="22" viewBox="0 0 22 22">
  <defs>
    <style>
      .a {
        fill: #2969b8;
      }
    </style>
  </defs>
  <title>2</title>
  <g>
    <path class="a" d="M17.4,13.63a2.17,2.17,0,0,0-1.58-.72,2.24,2.24,0,0,0-1.59.71l-1.47,1.47-.35-.19a3.28,3.28,0,0,1-.46-.25,15.88,15.88,0,0,1-3.83-3.48,9.59,9.59,0,0,1-1.26-2c.39-.34.74-.71,1.08-1l.39-.4a2.12,2.12,0,0,0,0-3.21L7.06,3.26l-.43-.44c-.28-.29-.57-.59-.87-.86A2.19,2.19,0,0,0,4.2,1.27,2.25,2.25,0,0,0,2.62,2h0L1,3.56A3.34,3.34,0,0,0,0,5.72,8.27,8.27,0,0,0,.61,9.16a20.18,20.18,0,0,0,3.56,5.93,22,22,0,0,0,7.29,5.69A11.27,11.27,0,0,0,15.55,22h.29a3.54,3.54,0,0,0,2.69-1.15,0,0,0,0,1,0,0c.25-.3.53-.56.82-.85l.6-.59a2.34,2.34,0,0,0,.71-1.61A2.21,2.21,0,0,0,20,16.19Zm1.66,4.89h0c-.18.19-.37.37-.57.56a11.27,11.27,0,0,0-.89.93,2.26,2.26,0,0,1-1.75.74h-.22A10.08,10.08,0,0,1,12,19.66a20.56,20.56,0,0,1-6.87-5.37A18.85,18.85,0,0,1,1.8,8.72a6.49,6.49,0,0,1-.53-2.9,2.13,2.13,0,0,1,.65-1.38L3.5,2.86a1,1,0,0,1,.71-.33,1,1,0,0,1,.68.32v0c.29.26.55.53.84.83l.44.45L7.45,5.41a.89.89,0,0,1,0,1.44l-.4.4c-.39.4-.76.77-1.17,1.14l0,0a.93.93,0,0,0-.24,1.05v0A10.4,10.4,0,0,0,7.13,12h0a16.78,16.78,0,0,0,4.13,3.75,5.33,5.33,0,0,0,.57.31,4,4,0,0,1,.46.25s0,0,.06,0a1,1,0,0,0,.46.11,1,1,0,0,0,.7-.32l1.59-1.58a1.05,1.05,0,0,1,.71-.35.93.93,0,0,1,.66.34h0l2.57,2.55A.92.92,0,0,1,19.06,18.52Z"/>
    <path class="a" d="M11.89,5.23a6,6,0,0,1,4.87,4.87.62.62,0,0,0,.62.52h.11A.64.64,0,0,0,18,9.89,7.25,7.25,0,0,0,12.11,4a.63.63,0,0,0-.73.51A.62.62,0,0,0,11.89,5.23Z"/>
    <path class="a" d="M22,9.7A11.92,11.92,0,0,0,12.28,0a.62.62,0,1,0-.2,1.23,10.63,10.63,0,0,1,5.71,3,10.5,10.5,0,0,1,3,5.71.62.62,0,0,0,.62.52h.11A.62.62,0,0,0,22,9.7Z"/>
  </g>
</svg>
