<svg xmlns="http://www.w3.org/2000/svg" width="32" height="36.95" viewBox="0 0 32 36.95">
  <defs>
    <style>
      .a {
        fill: #2969b8;
      }
    </style>
  </defs>
  <title>12</title>
  <g>
    <path class="a" d="M30.91,30.6l-3.66-3.66V.62A.62.62,0,0,0,26.63,0H8a.51.51,0,0,0-.17,0l0,0a.76.76,0,0,0-.19.12L.18,7.61a.71.71,0,0,0-.12.18s0,0,0,.06A.45.45,0,0,0,0,8s0,0,0,0V31.57a.62.62,0,0,0,.62.62H22l3.67,3.67A3.68,3.68,0,0,0,28.28,37a3.72,3.72,0,0,0,2.63-6.35Zm-5.25,3.51L16,24.48,19.53,21l9.64,9.64ZM15.5,23.25l-.84-3.64,3.64.84ZM7.43,2.11V7.43H2.12ZM1.24,31V8.67H8.05a.62.62,0,0,0,.62-.62V1.24H26V25.7l-6-6h0l-.17-.11-.05,0-.07,0L14,18.18a.63.63,0,0,0-.75.74l1.32,5.7a.25.25,0,0,0,0,.07s0,0,0,0a.66.66,0,0,0,.12.17h0l6,6ZM30,35a2.45,2.45,0,0,1-3.49,0l.29-.29L30,31.48a2.47,2.47,0,0,1,.72,1.75A2.44,2.44,0,0,1,30,35Z"/>
    <path class="a" d="M5.58,12.38H21.67a.62.62,0,0,0,0-1.24H5.58a.62.62,0,1,0,0,1.24Z"/>
    <path class="a" d="M5.58,16.1H21.67a.62.62,0,1,0,0-1.24H5.58a.62.62,0,1,0,0,1.24Z"/>
    <path class="a" d="M9.91,18.57H5.58a.62.62,0,0,0,0,1.24H9.91a.62.62,0,0,0,0-1.24Z"/>
  </g>
</svg>
