<?xml version="1.0" encoding="UTF-8" standalone="no"?>
<svg
   xmlns:dc="http://purl.org/dc/elements/1.1/"
   xmlns:cc="http://creativecommons.org/ns#"
   xmlns:rdf="http://www.w3.org/1999/02/22-rdf-syntax-ns#"
   xmlns:svg="http://www.w3.org/2000/svg"
   xmlns="http://www.w3.org/2000/svg"
   xmlns:sodipodi="http://sodipodi.sourceforge.net/DTD/sodipodi-0.dtd"
   xmlns:inkscape="http://www.inkscape.org/namespaces/inkscape"
   width="32"
   height="32"
   viewBox="0 0 31.999999 32"
   id="svg2"
   version="1.1"
   inkscape:version="0.91 r13725"
   sodipodi:docname="rect-cut.svg">
  <metadata
     id="metadata52">
    <rdf:RDF>
      <cc:Work
         rdf:about="">
        <dc:format>image/svg+xml</dc:format>
        <dc:type
           rdf:resource="http://purl.org/dc/dcmitype/StillImage" />
        <dc:title>9</dc:title>
      </cc:Work>
    </rdf:RDF>
  </metadata>
  <sodipodi:namedview
     pagecolor="#ffffff"
     bordercolor="#666666"
     borderopacity="1"
     objecttolerance="10"
     gridtolerance="10"
     guidetolerance="10"
     inkscape:pageopacity="0"
     inkscape:pageshadow="2"
     inkscape:window-width="2560"
     inkscape:window-height="1021"
     id="namedview50"
     showgrid="false"
     inkscape:zoom="9.8008125"
     inkscape:cx="28.173488"
     inkscape:cy="9.0270721"
     inkscape:window-x="0"
     inkscape:window-y="0"
     inkscape:window-maximized="1"
     inkscape:current-layer="g10" />
  <defs
     id="defs4">
    <style
       id="style6">
      .a {
        fill: #2969b8;
      }
    </style>
  </defs>
  <title
     id="title8">9</title>
  <g
     id="g10">
    <rect
       class="a"
       x="28.860001"
       y="20.139999"
       width="1.25"
       height="2.72"
       id="rect14"
       style="fill:#2969b8" />
    <rect
       class="a"
       x="1.8599988"
       y="9.1300001"
       width="1.25"
       height="2.74"
       id="rect16"
       style="fill:#2969b8" />
    <rect
       class="a"
       x="1.8599988"
       y="14.64"
       width="1.25"
       height="2.74"
       id="rect18"
       style="fill:#2969b8" />
    <rect
       class="a"
       x="1.8599988"
       y="20.139999"
       width="1.25"
       height="2.72"
       id="rect20"
       style="fill:#2969b8" />
    <rect
       class="a"
       x="28.860001"
       y="14.64"
       width="1.25"
       height="2.74"
       id="rect22"
       style="fill:#2969b8" />
    <rect
       class="a"
       x="28.860001"
       y="9.1300001"
       width="1.25"
       height="2.74"
       id="rect24"
       style="fill:#2969b8" />
    <g
       id="g26"
       transform="translate(-10.000001,0)">
      <rect
         class="a"
         x="24.459999"
         y="1.88"
         width="2.74"
         height="1.25"
         id="rect28"
         style="fill:#2969b8" />
      <rect
         class="a"
         x="18.950001"
         y="1.88"
         width="2.74"
         height="1.25"
         id="rect30"
         style="fill:#2969b8" />
      <rect
         class="a"
         x="29.959999"
         y="1.88"
         width="2.72"
         height="1.25"
         id="rect32"
         style="fill:#2969b8" />
      <path
         class="a"
         d="M 41.36,0 37.61,0 A 0.63,0.63 0 0 0 37,0.63 l 0,1.25 -1.56,0 0,1.25 1.56,0 0,1.25 A 0.62,0.62 0 0 0 37.62,5 l 1.25,0 0,1.37 1.25,0 0,-1.37 1.25,0 A 0.63,0.63 0 0 0 42,4.38 L 42,0.63 A 0.63,0.63 0 0 0 41.36,0 Z m -0.62,3.75 -2.5,0 0,-2.5 2.5,0 z"
         id="path34"
         inkscape:connector-curvature="0"
         style="fill:#2969b8" />
      <path
         class="a"
         d="M 16.19,1.88 15,1.88 15,0.63 A 0.63,0.63 0 0 0 14.36,0 L 10.61,0 A 0.63,0.63 0 0 0 10,0.63 l 0,3.75 A 0.62,0.62 0 0 0 10.62,5 l 1.25,0 0,1.37 1.25,0 0,-1.37 1.25,0 A 0.63,0.63 0 0 0 15,4.38 l 0,-1.25 1.2,0 z m -2.45,1.87 -2.5,0 0,-2.5 2.5,0 z"
         id="path36"
         inkscape:connector-curvature="0"
         style="fill:#2969b8" />
    </g>
    <g
       id="g38"
       transform="translate(-10.000001,0)">
      <rect
         class="a"
         x="29.9"
         y="28.879999"
         width="2.72"
         height="1.25"
         id="rect40"
         style="fill:#2969b8" />
      <rect
         class="a"
         x="18.889999"
         y="28.879999"
         width="2.74"
         height="1.25"
         id="rect42"
         style="fill:#2969b8" />
      <rect
         class="a"
         x="24.389999"
         y="28.879999"
         width="2.74"
         height="1.25"
         id="rect44"
         style="fill:#2969b8" />
      <path
         class="a"
         d="m 41.36,27 -1.25,0 0,-1.37 -1.25,0 0,1.37 -1.25,0"
         id="path48"
         inkscape:connector-curvature="0"
         style="fill:#2969b8" />
    </g>
    <path
       style="fill:#2969b8"
       inkscape:connector-curvature="0"
       id="path4153"
       d="m 31.359999,31.999921 -3.75,0 a 0.63,0.63 0 0 1 -0.61,-0.63 l 0,-1.25 -1.56,0 0,-1.25 1.56,0 0,-1.25 a 0.62,0.62 0 0 1 0.62,-0.62 l 1.25,0 0,-1.37 1.25,0 0,1.37 1.25,0 a 0.63,0.63 0 0 1 0.63,0.62 l 0,3.75 a 0.63,0.63 0 0 1 -0.64,0.63 z m -0.62,-3.75 -2.5,0 0,2.5 2.5,0 z"
       class="a" />
    <path
       style="fill:#2969b8"
       inkscape:connector-curvature="0"
       id="path4155"
       d="m 6.189999,30.119921 -1.19,0 0,1.25 a 0.63,0.63 0 0 1 -0.64,0.63 l -3.75,0 a 0.63,0.63 0 0 1 -0.6100000000001,-0.63 l 0,-3.75 A 0.62,0.62 0 0 1 0.619999,26.999921 l 1.25,0 0,-1.37 1.25,0 0,1.37 1.25,0 a 0.63,0.63 0 0 1 0.63,0.62 l 0,1.25 1.2,0 z m -2.45,-1.87 -2.5,0 0,2.5 2.5,0 z"
       class="a" />
  </g>
</svg>
