<svg xmlns="http://www.w3.org/2000/svg" width="32" height="32" viewBox="0 0 32 32">
  <defs>
    <style>
      .a {
        fill: #2969b8;
      }
    </style>
  </defs>
  <title>5</title>
  <path class="a" d="M31.38,5A.62.62,0,0,0,32,4.38V.63A.63.63,0,0,0,31.38,0H27.63A.63.63,0,0,0,27,.63V1.88H5V.63A.63.63,0,0,0,4.38,0H.63A.63.63,0,0,0,0,.63V4.38A.63.63,0,0,0,.63,5H1.88V27H.63a.63.63,0,0,0-.63.63v3.75A.63.63,0,0,0,.63,32H4.38A.62.62,0,0,0,5,31.38V30.13H27v1.25a.63.63,0,0,0,.63.62h3.75a.62.62,0,0,0,.62-.62V27.63a.63.63,0,0,0-.62-.63H30.13V5ZM1.25,3.75V1.25h2.5v2.5Zm2.5,27H1.25v-2.5h2.5ZM27,27.63v1.25H5V27.63A.63.63,0,0,0,4.38,27H3.13V5H4.38A.62.62,0,0,0,5,4.38V3.13H27V4.38a.63.63,0,0,0,.63.62h1.25V27H27.63A.63.63,0,0,0,27,27.63Zm3.75.62v2.5h-2.5v-2.5Zm-2.5-24.5V1.25h2.5v2.5Z"/>
</svg>
