<svg xmlns="http://www.w3.org/2000/svg" width="42.45" height="32" viewBox="0 0 42.45 32">
  <defs>
    <style>
      .a {
        fill: #2969b8;
      }
    </style>
  </defs>
  <title>6</title>
  <g>
    <path class="a" d="M41.83,5a.62.62,0,0,0,.62-.62V.63A.63.63,0,0,0,41.83,0H38.08a.63.63,0,0,0-.63.63V1.88h-22V.63A.63.63,0,0,0,14.83,0H11.08a.63.63,0,0,0-.63.63V4.38a.63.63,0,0,0,.63.62h1.25V27H11.08a.63.63,0,0,0-.63.63v3.75a.63.63,0,0,0,.63.62h3.75a.62.62,0,0,0,.62-.62V30.13h22v1.25a.63.63,0,0,0,.63.62h3.75a.62.62,0,0,0,.62-.62V27.63a.63.63,0,0,0-.62-.63H40.58V5ZM11.7,3.75V1.25h2.5v2.5Zm2.5,27H11.7v-2.5h2.5Zm23.25-3.12v1.25h-22V27.63a.63.63,0,0,0-.62-.63H13.58V5h1.25a.62.62,0,0,0,.62-.62V3.13h22V4.38a.63.63,0,0,0,.63.62h1.25V27H38.08A.63.63,0,0,0,37.45,27.63Zm3.75.62v2.5H38.7v-2.5ZM38.7,3.75V1.25h2.5v2.5Z"/>
    <path class="a" d="M4.65,9.24a.63.63,0,0,0,.63-.63.61.61,0,0,0-.15-.41L3.18,4.81a.62.62,0,0,0-.86-.23.63.63,0,0,0-.23.23l-2,3.48a.63.63,0,0,0,.23.86.62.62,0,0,0,.32.09H2V21.75H.63a.63.63,0,0,0-.63.63.62.62,0,0,0,.09.32l2,3.48a.63.63,0,0,0,.86.23.84.84,0,0,0,.23-.23l2-3.48A.63.63,0,0,0,5,21.84a.56.56,0,0,0-.31-.09H3.27V9.24ZM3.56,23,2.64,24.6,1.72,23ZM1.72,8l.92-1.6L3.56,8Z"/>
  </g>
</svg>
