<svg xmlns="http://www.w3.org/2000/svg" width="20.3" height="21.3" viewBox="0 0 20.3 21.3">
  <defs>
    <style>
      .a {
        fill: #2d6ab2;
        stroke: #2969b8;
        stroke-miterlimit: 10;
        stroke-width: 0.3px;
      }
    </style>
  </defs>
  <title>4</title>
  <path class="a" d="M20,20.41,15.62,15.7A9.12,9.12,0,0,0,9.21.15a9.12,9.12,0,0,0,0,18.24A9,9,0,0,0,15,16.29L19.41,21a.44.44,0,0,0,.31.13A.46.46,0,0,0,20,21,.45.45,0,0,0,20,20.41ZM9.21,17.52A8.25,8.25,0,1,1,17.4,9.27,8.23,8.23,0,0,1,9.21,17.52Z"/>
</svg>
