<?xml version="1.0" encoding="UTF-8" standalone="no"?>
<svg
   version="1.0"
   width="74.500000pt"
   height="40.800000pt"
   viewBox="0 0 745.000000 408.000000"
   preserveAspectRatio="xMidYMid meet"
   id="svg26"
   sodipodi:docname="trapezoid-size-sceme.svg"
   inkscape:version="1.2.2 (1:1.2.2+202305151914+b0a8486541)"
   xmlns:inkscape="http://www.inkscape.org/namespaces/inkscape"
   xmlns:sodipodi="http://sodipodi.sourceforge.net/DTD/sodipodi-0.dtd"
   xmlns:xlink="http://www.w3.org/1999/xlink"
   xmlns="http://www.w3.org/2000/svg"
   xmlns:svg="http://www.w3.org/2000/svg">
  <defs
     id="defs30">
    <marker
       style="overflow:visible"
       id="Arrow2"
       refX="0"
       refY="0"
       orient="auto-start-reverse"
       inkscape:stockid="Arrow2"
       markerWidth="7"
       markerHeight="4.1999998"
       viewBox="0 0 7.7 5.6"
       inkscape:isstock="true"
       inkscape:collect="always"
       preserveAspectRatio="xMidYMid">
      <path
         transform="scale(0.7)"
         d="M -2,-4 9,0 -2,4 c 2,-2.33 2,-5.66 0,-8 z"
         style="fill:context-stroke;fill-rule:evenodd;stroke:none"
         id="arrow2L" />
    </marker>
  </defs>
  <sodipodi:namedview
     id="namedview28"
     pagecolor="#ffffff"
     bordercolor="#000000"
     borderopacity="0.25"
     inkscape:showpageshadow="2"
     inkscape:pageopacity="0.0"
     inkscape:pagecheckerboard="0"
     inkscape:deskcolor="#d1d1d1"
     inkscape:document-units="pt"
     showgrid="false"
     showguides="true"
     inkscape:zoom="6.2818792"
     inkscape:cx="42.980769"
     inkscape:cy="27.53953"
     inkscape:window-width="2560"
     inkscape:window-height="1027"
     inkscape:window-x="0"
     inkscape:window-y="0"
     inkscape:window-maximized="1"
     inkscape:current-layer="layer1" />
  <g
     inkscape:groupmode="layer"
     id="layer2"
     inkscape:label="src"
     style="display:none"
     sodipodi:insensitive="true">
    <text
       xml:space="preserve"
       style="font-size:53.7239px;font-family:'lcd phone';-inkscape-font-specification:'lcd phone';text-align:center;letter-spacing:5.625px;text-anchor:middle;opacity:1;fill:#2969b8;fill-opacity:1;stroke:#2969b8;stroke-width:3.6;stroke-linecap:round;stroke-linejoin:round;stroke-dasharray:none;stroke-opacity:1;stop-color:#000000"
       x="384.30457"
       y="392.51608"
       id="text1134"><tspan
         sodipodi:role="line"
         id="tspan1132"
         style="font-style:normal;font-variant:normal;font-weight:normal;font-stretch:normal;font-family:GOST_type_A;-inkscape-font-specification:GOST_type_A;fill:#2969b8;fill-opacity:1;stroke:#2969b8;stroke-width:3.6;stroke-dasharray:none;stroke-opacity:1"
         x="387.11707"
         y="392.51608">Ш</tspan></text>
    <text
       xml:space="preserve"
       style="font-size:53.7239px;font-family:'lcd phone';-inkscape-font-specification:'lcd phone';text-align:center;letter-spacing:5.625px;text-anchor:middle;opacity:1;fill:#2969b8;fill-opacity:1;stroke:#2969b8;stroke-width:3.6;stroke-linecap:round;stroke-linejoin:round;stroke-dasharray:none;stroke-opacity:1;stop-color:#000000"
       x="371.84793"
       y="39.583855"
       id="text1140"><tspan
         sodipodi:role="line"
         id="tspan1138"
         style="font-style:normal;font-variant:normal;font-weight:normal;font-stretch:normal;font-family:GOST_type_A;-inkscape-font-specification:GOST_type_A;fill:#2969b8;fill-opacity:1;stroke:#2969b8;stroke-width:3.6;stroke-dasharray:none;stroke-opacity:1"
         x="374.66043"
         y="39.583855">Ш<tspan
   style="font-size:40px"
   id="tspan1136">2</tspan></tspan></text>
    <text
       xml:space="preserve"
       style="font-size:53.7239px;font-family:'lcd phone';-inkscape-font-specification:'lcd phone';text-align:center;letter-spacing:5.625px;text-anchor:middle;opacity:1;fill:#2969b8;fill-opacity:1;stroke:#2969b8;stroke-width:3.6;stroke-linecap:round;stroke-linejoin:round;stroke-dasharray:none;stroke-opacity:1;stop-color:#000000"
       x="112.76514"
       y="39.583855"
       id="text1144"><tspan
         sodipodi:role="line"
         id="tspan1142"
         style="font-style:normal;font-variant:normal;font-weight:normal;font-stretch:normal;font-family:GOST_type_A;-inkscape-font-specification:GOST_type_A;fill:#2969b8;fill-opacity:1;stroke:#2969b8;stroke-width:3.6;stroke-dasharray:none;stroke-opacity:1"
         x="115.57764"
         y="39.583855">C</tspan></text>
    <text
       xml:space="preserve"
       style="font-size:53.7239px;font-family:'lcd phone';-inkscape-font-specification:'lcd phone';text-align:center;letter-spacing:5.625px;text-anchor:middle;opacity:1;fill:#000000;fill-opacity:0;stroke:#2969b8;stroke-width:3.6;stroke-linecap:round;stroke-linejoin:round;stroke-dasharray:none;stroke-opacity:1;stop-color:#000000"
       x="-214.09877"
       y="490.26205"
       id="text1148"
       transform="rotate(-90)"><tspan
         sodipodi:role="line"
         id="tspan1146"
         style="font-style:normal;font-variant:normal;font-weight:normal;font-stretch:normal;font-family:GOST_type_A;-inkscape-font-specification:GOST_type_A;fill:#000000;fill-opacity:0;stroke:#2969b8;stroke-width:3.6;stroke-dasharray:none;stroke-opacity:1"
         x="-211.28627"
         y="490.26205">В</tspan></text>
  </g>
  <g
     inkscape:groupmode="layer"
     id="layer1"
     inkscape:label="main">
    <path
       style="color:#000000;clip-rule:nonzero;display:inline;overflow:visible;visibility:visible;isolation:auto;mix-blend-mode:normal;color-interpolation:sRGB;color-interpolation-filters:linearRGB;solid-color:#000000;solid-opacity:1;fill:none;fill-opacity:0.941176;fill-rule:evenodd;stroke:#2969b8;stroke-width:11.25;stroke-linecap:round;stroke-linejoin:round;stroke-miterlimit:4;stroke-dasharray:none;stroke-dashoffset:0;stroke-opacity:1;color-rendering:auto;image-rendering:auto;shape-rendering:auto;text-rendering:auto;enable-background:accumulate"
       d="M 211.14,85.274525 H 532.78834 L 730.06595,342.2461 H 13.862429 Z"
       id="rect5261"
       inkscape:connector-curvature="0"
       sodipodi:nodetypes="ccccc" />
    <path
       style="opacity:1;fill:#00ffff;stroke:#2969b8;stroke-width:3.75000003;stroke-linecap:round;stroke-linejoin:round;stroke-dasharray:none;stroke-opacity:1;stop-color:#000000"
       d="m 13.862429,342.2461 v 62.28126"
       id="path1311" />
    <use
       x="0"
       y="0"
       xlink:href="#path1311"
       id="use2138"
       transform="translate(716.20352)" />
    <path
       style="opacity:1;fill:#00ffff;stroke:#2969b8;stroke-width:3.75;stroke-linecap:round;stroke-linejoin:round;stroke-dasharray:none;stroke-opacity:1;marker-start:url(#Arrow2);marker-end:url(#Arrow2);stop-color:#000000"
       d="M 713.19105,399.50338 H 30.687244"
       id="path2146"
       sodipodi:nodetypes="cc" />
    <path
       style="opacity:1;fill:#00ffff;stroke:#2969b8;stroke-width:3.75;stroke-linecap:round;stroke-linejoin:round;stroke-dasharray:none;stroke-opacity:1;marker-start:url(#Arrow2);marker-end:url(#Arrow2);stop-color:#000000"
       d="M 516.27987,46.312885 H 228.2602"
       id="path2463"
       sodipodi:nodetypes="cc" />
    <path
       style="opacity:1;fill:#00ffff;stroke:#2969b8;stroke-width:3.75000003;stroke-linecap:round;stroke-linejoin:round;stroke-dasharray:none;stroke-opacity:1;stop-color:#000000"
       d="M 211.14,38.134412 V 85.274525"
       id="path2491"
       sodipodi:nodetypes="cc" />
    <use
       x="0"
       y="0"
       xlink:href="#path2491"
       id="use2499"
       transform="translate(321.64834)" />
    <path
       style="opacity:1;fill:none;stroke:#2969b8;stroke-width:3.75000003;stroke-linecap:round;stroke-linejoin:round;stroke-dasharray:none;stroke-opacity:1;stop-color:#000000"
       d="M 13.862429,342.2461 V 38.134398"
       id="path2507"
       sodipodi:nodetypes="cc" />
    <path
       style="opacity:1;fill:#00ffff;stroke:#2969b8;stroke-width:3.75;stroke-linecap:round;stroke-linejoin:round;stroke-dasharray:none;stroke-opacity:1;marker-start:url(#Arrow2);marker-end:url(#Arrow2);stop-color:#000000"
       d="M 194.54719,46.312885 H 30.56096"
       id="path2521"
       sodipodi:nodetypes="cc" />
    <path
       style="opacity:1;fill:#00ffff;stroke:#2969b8;stroke-width:3.75;stroke-linecap:round;stroke-linejoin:round;stroke-dasharray:none;stroke-opacity:1;marker-start:url(#Arrow2);marker-end:url(#Arrow2);stop-color:#000000"
       d="M 498.70436,322.75842 V 105.62395"
       id="path2630"
       sodipodi:nodetypes="cc" />
    <g
       aria-label="Ш"
       id="text2700"
       style="font-size:53.7239px;font-family:'lcd phone';-inkscape-font-specification:'lcd phone';text-align:center;letter-spacing:5.625px;text-anchor:middle;opacity:1;fill:#2969b8;stroke:#2969b8;stroke-width:3.6;stroke-linecap:round;stroke-linejoin:round;stop-color:#000000">
      <path
         d="m 382.96671,389.89285 v -32.79047 q 0,-0.41972 0.39349,-0.86567 0.39349,-0.44595 0.91813,-0.44595 0.47219,0 0.8919,0.34102 0.41972,0.34102 0.41972,0.9706 v 32.79047 h 7.89595 v -32.79047 q 0,-0.41972 0.39348,-0.86567 0.39349,-0.44595 0.91813,-0.44595 0.47219,0 0.89191,0.34102 0.41971,0.34102 0.41971,0.9706 v 34.10208 q 0,1.31162 -1.31162,1.31162 h -20.98589 q -1.31162,0 -1.31162,-1.31162 v -34.10208 q 0,-0.41972 0.39348,-0.86567 0.39349,-0.44595 0.91814,-0.44595 0.47218,0 0.8919,0.34102 0.41971,0.34102 0.41971,0.9706 v 32.79047 z"
         style="font-family:GOST_type_A;-inkscape-font-specification:GOST_type_A"
         id="path1176" />
    </g>
    <g
       aria-label="Ш2"
       id="text3414"
       style="font-size:53.7239px;font-family:'lcd phone';-inkscape-font-specification:'lcd phone';text-align:center;letter-spacing:5.625px;text-anchor:middle;opacity:1;fill:#2969b8;stroke:#2969b8;stroke-width:3.6;stroke-linecap:round;stroke-linejoin:round;stop-color:#000000">
      <path
         d="M 358.90852,36.960617 V 4.1701512 q 0,-0.419718 0.39348,-0.8656683 0.39349,-0.4459504 0.91814,-0.4459504 0.47218,0 0.8919,0.3410209 0.41971,0.3410208 0.41971,0.9705978 V 36.960617 h 7.89595 V 4.1701512 q 0,-0.419718 0.39348,-0.8656683 0.39349,-0.4459504 0.91814,-0.4459504 0.47218,0 0.8919,0.3410209 0.41972,0.3410208 0.41972,0.9705978 V 38.272236 q 0,1.311619 -1.31162,1.311619 h -20.9859 q -1.31162,0 -1.31162,-1.311619 V 4.1701512 q 0,-0.419718 0.39349,-0.8656683 0.39348,-0.4459504 0.91813,-0.4459504 0.47218,0 0.8919,0.3410209 0.41972,0.3410208 0.41972,0.9705978 V 36.960617 Z"
         style="font-family:GOST_type_A;-inkscape-font-specification:GOST_type_A"
         id="path1165" />
      <path
         d="m 394.90855,39.583855 h -11.67969 q -0.35156,0 -0.68359,-0.3125 -0.27344,-0.332032 -0.27344,-0.742188 0,-0.273437 0.13672,-0.46875 l 10.72265,-16.230469 0.41016,-0.761718 0.29297,-0.683594 q 0.23437,-0.703125 0.23437,-1.445313 0,-1.972656 -1.60156,-3.339843 -0.70312,-0.625 -1.66015,-0.996094 -0.95704,-0.390625 -1.9336,-0.390625 -1.34765,0 -2.51953,0.761719 -1.15234,0.742187 -1.875,2.558593 -0.11719,0.3125 -0.33203,0.46875 -0.21484,0.117188 -0.54688,0.175782 -0.41015,0 -0.72265,-0.253907 -0.29297,-0.273437 -0.29297,-0.703125 l 0.0586,-0.351562 q 0.82032,-2.382813 2.5586,-3.574219 1.54297,-1.074219 3.57422,-1.074219 2.79296,0 5,1.914063 2.30468,2.011719 2.30468,4.804687 0,0.957032 -0.29297,1.875 -0.29296,0.917969 -1.01562,2.109375 L 385.0648,37.63073 h 9.84375 q 0.35156,0 0.66406,0.3125 0.3125,0.3125 0.3125,0.664062 0,0.351563 -0.25391,0.664063 -0.2539,0.3125 -0.72265,0.3125 z"
         style="font-size:40px"
         id="path1167" />
    </g>
    <g
       aria-label="C"
       id="text3554"
       style="font-size:53.7239px;font-family:'lcd phone';-inkscape-font-specification:'lcd phone';text-align:center;letter-spacing:5.625px;text-anchor:middle;opacity:1;fill:#2969b8;stroke:#2969b8;stroke-width:3.6;stroke-linecap:round;stroke-linejoin:round;stop-color:#000000">
      <path
         d="m 119.32323,39.583855 h -6.53186 q -3.06919,0 -5.48257,-2.282217 -2.41338,-2.308449 -2.41338,-5.587495 V 10.728244 q 0,-3.1478843 2.28222,-5.5087979 2.28222,-2.3609136 5.61373,-2.3609136 h 6.53186 q 0.47218,0 0.8919,0.419718 0.41972,0.419718 0.41972,0.8919007 0,0.4721827 -0.34102,0.8919006 -0.34102,0.419718 -0.9706,0.419718 h -6.53186 q -2.17729,0 -3.725,1.5214776 -1.54771,1.4952453 -1.54771,3.7249966 v 20.985899 q 0,2.151054 1.54771,3.698764 1.54771,1.54771 3.725,1.54771 h 6.53186 q 0.47218,0 0.8919,0.419718 0.41972,0.419718 0.41972,0.891901 0,0.472183 -0.34102,0.891901 -0.34102,0.419718 -0.9706,0.419718 z"
         style="font-family:GOST_type_A;-inkscape-font-specification:GOST_type_A"
         id="path1170" />
    </g>
    <g
       aria-label="В"
       transform="rotate(-90)"
       id="text3635"
       style="font-size:53.7239px;font-family:'lcd phone';-inkscape-font-specification:'lcd phone';text-align:center;letter-spacing:5.625px;text-anchor:middle;opacity:1;fill-opacity:0;stroke:#2969b8;stroke-width:3.6;stroke-linecap:round;stroke-linejoin:round;stop-color:#000000">
      <path
         d="m -220.65686,469.30239 h 6.55809 q 2.15105,0 3.69876,-1.54771 1.54771,-1.54771 1.54771,-3.725 v -2.62324 q 0,-2.17728 -1.52147,-3.69876 -1.49525,-1.54771 -3.725,-1.54771 h -6.55809 z m 0,18.33643 h 7.86971 q 2.12482,0 3.69876,-1.49525 1.57395,-1.49524 1.57395,-3.75123 v -5.24647 q 0,-2.04613 -1.60018,-3.62007 -1.60017,-1.60017 -3.67253,-1.60017 h -7.86971 z m -1.31162,2.62323 q -1.31162,0 -1.31162,-1.31161 v -34.10209 q 0,-1.31162 1.31162,-1.31162 h 7.86971 q 3.22658,0 5.56126,2.30845 1.15423,1.10176 1.73134,2.51831 l 0.39349,1.39031 0.13116,0.83944 0.0525,0.8132 v 2.62324 q 0,1.91496 -0.70827,3.38398 -0.70828,1.46901 -2.22975,2.7544 1.86249,0.94436 3.06918,2.91179 1.20669,1.96743 1.20669,4.06602 v 5.24647 q 0,3.14789 -2.46584,5.5088 -2.43961,2.36091 -5.4301,2.36091 z"
         style="font-family:GOST_type_A;-inkscape-font-specification:GOST_type_A"
         id="path1173" />
    </g>
  </g>
</svg>
