<svg xmlns="http://www.w3.org/2000/svg" width="45.27" height="22.01" viewBox="0 0 45.27 22.01">
  <defs>
    <style>
      .a {
        fill: #2969b8;
      }
    </style>
  </defs>
  <title>7</title>
  <g>
    <path class="a" d="M4.65,4.74a.63.63,0,0,0,.48-1L3.18.31A.62.62,0,0,0,2.32.09a.69.69,0,0,0-.23.22L.08,3.8a.64.64,0,0,0,.23.86.72.72,0,0,0,.32.08H2V17.26H.63a.63.63,0,0,0-.63.63.56.56,0,0,0,.09.31l2,3.49a.62.62,0,0,0,.86.22.69.69,0,0,0,.23-.22l2-3.49A.63.63,0,0,0,5,17.34a.65.65,0,0,0-.31-.08H3.27V4.74ZM3.56,18.52l-.92,1.59-.92-1.59Zm-1.84-15,.92-1.59.92,1.59Z"/>
    <g>
      <path class="a" d="M29.88,3,27.11.2a.64.64,0,0,0-.92,0L23.42,3a.66.66,0,0,0,0,.92l.93.92.92.92.92.93a.66.66,0,0,0,.92,0L28,5.73,29,4.81l.92-.92A.64.64,0,0,0,29.88,3Zm-3.23,2.3L24.81,3.43l1.84-1.85L28.5,3.43Z"/>
      <path class="a" d="M14.7,18.11l-.92-.93-.93-.92-.92-.92a.64.64,0,0,0-.92,0L8.24,18.11a.64.64,0,0,0,0,.92L11,21.8a.66.66,0,0,0,.92,0l.92-.93.93-.92L14.7,19A.66.66,0,0,0,14.7,18.11Zm-3.23,2.3L9.62,18.57l1.85-1.85,1.85,1.85Z"/>
      <path class="a" d="M45.08,18.12l-2.77-2.77a.67.67,0,0,0-.93,0l-.92.93-.92.92-.93.92a.67.67,0,0,0,0,.93l.93.92.92.92.92.92a.65.65,0,0,0,.93,0l2.77-2.76A.67.67,0,0,0,45.08,18.12Zm-3.24,2.31L40,18.58l1.84-1.84,1.85,1.84Z"/>
      <rect class="a" x="13.32" y="19.04" width="27.07" height="1.3"/>
      <rect class="a" x="10.95" y="10.35" width="16.26" height="1.3" transform="translate(-2.19 16.71) rotate(-45)"/>
      <rect class="a" x="26.13" y="10.35" width="16.26" height="1.3" transform="translate(50.71 43) rotate(-135)"/>
    </g>
  </g>
</svg>
